<svg id="Layer_1" data-name="Layer 1" xmlns="http://www.w3.org/2000/svg" viewBox="0 0 1109.81 1302.32"><defs><style>.cls-1{fill:#111d50;}.cls-2{fill:#0a79ff;}.cls-3{fill:#fff;}.cls-4{fill:#fc0;}</style></defs><path class="cls-1" d="M129,788.8h60.61v88.72l75.29-88.72H336.7l-82.79,93.72,85.6,125H267l-55.29-81.22-22.18,24.37v56.85H129Z"/><path class="cls-1" d="M358.86,788.8H534.74V840H418.84v33.42h105v47.8h-105v34.68H536.3v51.54H358.86Z"/><path class="cls-1" d="M569.39,788.8H745.28V840H629.38v33.42h105v47.8h-105v34.68H746.84v51.54H569.39Z"/><path class="cls-1" d="M774.36,788.8h56.55l90,115.59V788.8h60v218.68H928.07l-93.73-120v120h-60Z"/><path class="cls-2" d="M277.76,1120.14v-.29c0-28.8,21.55-52.38,52.09-52.38,18.81,0,30.09,6.51,39.79,15.77l-11.43,13.17C350,1088.88,341.42,1084,329.7,1084c-19.1,0-33.28,15.77-33.28,35.6v.29c0,19.82,14,35.88,33.43,35.88,12.3,0,20.4-4.92,29.08-13l11.43,11.57c-10.27,11.15-22.28,18-41.09,18C299.75,1172.23,277.76,1149.22,277.76,1120.14Z"/><path class="cls-2" d="M381.79,1120.14v-.29c0-28.37,22-52.38,53.1-52.38s52.81,23.58,52.81,52.09v.29c0,28.36-22,52.38-53.1,52.38S381.79,1148.64,381.79,1120.14Zm87.25,0v-.29c0-19.68-14.18-35.89-34.44-35.89s-34.15,15.92-34.15,35.6v.29c0,19.68,14.18,35.88,34.44,35.88S469,1139.81,469,1120.14Z"/><path class="cls-2" d="M509.26,1069.2h19L559,1117.1l30.82-47.9h19v101.29H591v-72.64l-32,47.75h-.58l-31.69-47.46v72.35h-17.5Z"/><path class="cls-2" d="M634.84,1069.2h19l30.82,47.9,30.82-47.9h19v101.29H716.6v-72.64l-32,47.75H684l-31.69-47.46v72.35H634.84Z"/><path class="cls-2" d="M753.63,1155.73,764.34,1143c9.84,8.54,19.39,13.17,32,13.17,11,0,17.94-5.21,17.94-12.74v-.29c0-7.09-4-11.28-22.86-15.48-21.56-5.07-33.72-11.72-33.72-30.24v-.29c0-17.37,14.47-29.38,34.59-29.38,14.9,0,26.33,4.49,36.75,12.74L819.47,1094c-9.26-6.81-18.23-10.42-27.49-10.42-10.42,0-16.5,5.21-16.5,12v.29c0,7.81,4.63,11.28,24.17,15.91,21.27,5.5,32.41,12.74,32.41,29.67v.29c0,19.1-14.91,30.24-36.18,30.24A61.46,61.46,0,0,1,753.63,1155.73Z"/><circle class="cls-2" cx="554.91" cy="429.46" r="299.36"/><polygon class="cls-3" points="528.8 457.93 661.41 590.53 396.2 590.53 528.8 457.93"/><polygon class="cls-4" points="512.73 268.38 393.85 387.26 393.85 268.38 512.73 268.38"/><polygon class="cls-3" points="661.41 268.38 393.85 535.95 393.85 444.22 569.67 268.38 661.41 268.38"/><polygon class="cls-3" points="715.97 270.76 715.97 588.15 557.27 429.46 715.97 270.76"/></svg>