<svg xmlns="http://www.w3.org/2000/svg" viewBox="0 0 605.91 364.27"><defs><style>.cls-1{fill:#fff;}.cls-2{fill:#f1b428;}</style></defs><title>Keen Communications Logo DarkTransparent Icon by alexthecurator</title><g id="Design"><g id="Keen_Logo_Dark" data-name="Keen Logo Dark"><path id="KC" class="cls-1" d="M181.62,194.69a452.07,452.07,0,0,0-55.13,29.65l-13.55-17.68a29.22,29.22,0,0,0-10.81-9q-6-2.76-17.06-2.76H64.64v76.66C29.36,303.89,8.73,333.71,0,347.72H0V0H64.64V145.86H79.78q9.14,0,15.14-2.52a25.56,25.56,0,0,0,10.33-8.05L201.13,13.94q6-7.69,12.62-10.7t16.7-3H286.2l-117,144.42A106.2,106.2,0,0,1,158.6,156a48.87,48.87,0,0,1-10.81,7.45,47.55,47.55,0,0,1,14.29,8.17A75.5,75.5,0,0,1,174.46,185Zm-10.4,92.47,46.36,60.53a26.77,26.77,0,0,0,9.49,9.49q5.64,3.24,17.18,3.25h57.2L219.2,249.51A456.63,456.63,0,0,0,171.22,287.16Zm214-163.47q8.1-22.2,22.55-37.71a98,98,0,0,1,34.53-23.84,113.82,113.82,0,0,1,44.05-8.34q20.44,0,33.72,4.23a117.15,117.15,0,0,1,22,9.16,137.37,137.37,0,0,1,14.33,9.16q5.64,4.23,11,4.23,5.18,0,8.11-2.11a19.09,19.09,0,0,0,4.81-4.94l21.15-29.36A154.7,154.7,0,0,0,553,12.1Q524.65,0,486.83,0,448.07,0,416,12.8a161.76,161.76,0,0,0-55.09,35.83,160.65,160.65,0,0,0-35.7,54.85,181,181,0,0,0-12.07,54,563.36,563.36,0,0,1,65.51-6.67A131.19,131.19,0,0,1,385.23,123.69ZM580.44,282.57a12.16,12.16,0,0,0-9.14-4.09,12.7,12.7,0,0,0-5.76,1.32,23,23,0,0,0-5,3.49,106.27,106.27,0,0,1-16,12.14,87.54,87.54,0,0,1-17.06,8,101,101,0,0,1-19.7,4.57,180.56,180.56,0,0,1-23.92,1.44,103.19,103.19,0,0,1-41.33-8.29,95.7,95.7,0,0,1-33.4-23.91q-14.18-15.61-22.47-38.45t-8.29-52.14c0-1.41.05-2.79.08-4.18a443.8,443.8,0,0,0-65.68,18.7,204.4,204.4,0,0,0,11.17,56.85q11.65,32.69,33.53,56.23a153.12,153.12,0,0,0,52.74,36.76q30.87,13.23,69.57,13.22,43.26,0,74.13-13.94a139.7,139.7,0,0,0,52-40.13Z"/><path id="Ark" class="cls-2" d="M571.23,182.65C183.61,92.62,35.86,335.19,19.7,364.27h81.78a517,517,0,0,1,69.74-77.11,456.63,456.63,0,0,1,48-37.65,432.55,432.55,0,0,1,93.54-48.3,443.8,443.8,0,0,1,65.68-18.7C462.79,165.3,535.57,175.26,571.23,182.65Z"/></g></g></svg>