<svg xmlns="http://www.w3.org/2000/svg" viewBox="0 0 605.91 472.07"><defs><style>.cls-1{fill:none;}.cls-2{fill:#252122;}.cls-3{fill:#f1b428;}</style></defs><title>Keen Communications Logo full light svg by alexthecurator</title><g id="Design"><g id="Keen_Logo_SVG_full_light" data-name="Keen Logo SVG full light"><path class="cls-1" d="M87.8,430.79a5.8,5.8,0,0,0-2.07-1.52,7.17,7.17,0,0,0-2.92-.56,6.91,6.91,0,0,0-5.09,1.84,9,9,0,0,0-2.37,5.23H89.43a9,9,0,0,0-.41-2.73A6.58,6.58,0,0,0,87.8,430.79Z"/><path class="cls-1" d="M445.81,443.21a4.72,4.72,0,0,0-1.91,1.48,3.69,3.69,0,0,0,.59,4.66,5.09,5.09,0,0,0,3,.84,8.77,8.77,0,0,0,4-.83,11.68,11.68,0,0,0,3.28-2.52v-5.23a41.27,41.27,0,0,0-5.44.56A14.43,14.43,0,0,0,445.81,443.21Z"/><path class="cls-1" d="M55.53,430.79a5.8,5.8,0,0,0-2.07-1.52,7.17,7.17,0,0,0-2.92-.56,6.91,6.91,0,0,0-5.09,1.84,9,9,0,0,0-2.37,5.23H57.16a9,9,0,0,0-.41-2.73A6.58,6.58,0,0,0,55.53,430.79Z"/><path class="cls-1" d="M203.55,429.07a6.66,6.66,0,0,0-5.82,2.65q-1.89,2.64-1.89,7.63t1.89,7.59a6.69,6.69,0,0,0,5.82,2.62,6.56,6.56,0,0,0,5.72-2.6q1.86-2.59,1.86-7.61t-1.86-7.65A6.53,6.53,0,0,0,203.55,429.07Z"/><path class="cls-1" d="M521.25,429.07a6.63,6.63,0,0,0-5.81,2.65q-1.89,2.64-1.89,7.63t1.89,7.59a6.66,6.66,0,0,0,5.81,2.62A6.58,6.58,0,0,0,527,447c1.24-1.73,1.85-4.27,1.85-7.61s-.61-5.9-1.85-7.65A6.55,6.55,0,0,0,521.25,429.07Z"/><path class="cls-2" d="M19.56,432.68a6.24,6.24,0,0,0-1.8-1,8.13,8.13,0,0,0,2.69-2.36l14.71-18.16h-7a5.15,5.15,0,0,0-2.1.38,4.31,4.31,0,0,0-1.58,1.35L12.41,428.14a3.17,3.17,0,0,1-1.3,1,4.92,4.92,0,0,1-1.9.32H7.31V411.15H-.82v43.7H7.31V435.63H9.87a5.63,5.63,0,0,1,2.18.33,3.27,3.27,0,0,1,1.33,1.15l12.36,16.13a3.34,3.34,0,0,0,1.19,1.2,4.46,4.46,0,0,0,2.16.41h7.16L21.08,434.39A8.32,8.32,0,0,0,19.56,432.68Z"/><path class="cls-2" d="M63.51,439.69a4.86,4.86,0,0,0,.36-2.28,16.61,16.61,0,0,0-1-6,12.76,12.76,0,0,0-2.8-4.41,11.72,11.72,0,0,0-4.26-2.73,15,15,0,0,0-5.41-.94,15.57,15.57,0,0,0-6.24,1.21,14,14,0,0,0-4.68,3.28,14.44,14.44,0,0,0-2.95,4.86,17.33,17.33,0,0,0-1,6,20.28,20.28,0,0,0,1.17,7.18,15,15,0,0,0,3.24,5.19,13.56,13.56,0,0,0,4.83,3.18,16.7,16.7,0,0,0,6,1.07,24.52,24.52,0,0,0,3.37-.24,17.77,17.77,0,0,0,3.42-.83,15.75,15.75,0,0,0,3.22-1.58,12.48,12.48,0,0,0,2.78-2.43l-2.15-2.72a1.55,1.55,0,0,0-1.39-.69,3,3,0,0,0-1.44.42c-.49.28-1.06.6-1.72.94a14.7,14.7,0,0,1-2.29.93,10,10,0,0,1-3.13.43,9.46,9.46,0,0,1-3.31-.56,6.82,6.82,0,0,1-2.58-1.69,8.51,8.51,0,0,1-1.76-2.87,14.84,14.84,0,0,1-.84-4.13H62.12A1.5,1.5,0,0,0,63.51,439.69Zm-20.43-3.91a9,9,0,0,1,2.37-5.23,6.91,6.91,0,0,1,5.09-1.84,7.17,7.17,0,0,1,2.92.56,5.8,5.8,0,0,1,2.07,1.52,6.58,6.58,0,0,1,1.22,2.26,9,9,0,0,1,.41,2.73Z"/><path class="cls-2" d="M95.77,439.69a4.7,4.7,0,0,0,.37-2.28,16.39,16.39,0,0,0-1-6A12.59,12.59,0,0,0,92.33,427a11.72,11.72,0,0,0-4.26-2.73,15.07,15.07,0,0,0-5.41-.94,15.54,15.54,0,0,0-6.24,1.21,14,14,0,0,0-4.68,3.28,14.44,14.44,0,0,0-2.95,4.86,17.33,17.33,0,0,0-1,6,20.28,20.28,0,0,0,1.17,7.18,15,15,0,0,0,3.24,5.19A13.56,13.56,0,0,0,77,454.23a16.66,16.66,0,0,0,6,1.07,24.63,24.63,0,0,0,3.37-.24,17.77,17.77,0,0,0,3.42-.83A15.68,15.68,0,0,0,93,452.65a12.06,12.06,0,0,0,2.78-2.43l-2.14-2.72a1.55,1.55,0,0,0-1.39-.69,3,3,0,0,0-1.44.42c-.49.28-1.06.6-1.72.94a14.7,14.7,0,0,1-2.29.93,10,10,0,0,1-3.13.43,9.46,9.46,0,0,1-3.31-.56,6.82,6.82,0,0,1-2.58-1.69A8.51,8.51,0,0,1,76,444.41a14.84,14.84,0,0,1-.84-4.13H94.38A1.48,1.48,0,0,0,95.77,439.69Zm-20.42-3.91a9,9,0,0,1,2.37-5.23,6.91,6.91,0,0,1,5.09-1.84,7.17,7.17,0,0,1,2.92.56,5.8,5.8,0,0,1,2.07,1.52A6.58,6.58,0,0,1,89,433.05a9,9,0,0,1,.41,2.73Z"/><path class="cls-2" d="M126.06,426.64a8.93,8.93,0,0,0-3.27-2.42,11.2,11.2,0,0,0-4.51-.86,12.63,12.63,0,0,0-2.9.32,12,12,0,0,0-2.49.88,12.58,12.58,0,0,0-2.21,1.35,21.68,21.68,0,0,0-2,1.74l-.52-2.45a1.82,1.82,0,0,0-1.9-1.35h-4.56v31h7.46V432.43a12.84,12.84,0,0,1,3.2-2.39,7.85,7.85,0,0,1,3.63-.88,4.87,4.87,0,0,1,4,1.56,6.7,6.7,0,0,1,1.29,4.39v19.74h7.47V435.11a15.85,15.85,0,0,0-.68-4.75A10.73,10.73,0,0,0,126.06,426.64Z"/><path class="cls-2" d="M181.67,444.54a1.53,1.53,0,0,0-.69.17,2.92,2.92,0,0,0-.64.44,13,13,0,0,1-2,1.52,10.47,10.47,0,0,1-2.14,1,12.17,12.17,0,0,1-2.48.58,22.87,22.87,0,0,1-3,.18,13,13,0,0,1-5.19-1,12.16,12.16,0,0,1-4.2-3,14.5,14.5,0,0,1-2.83-4.83,19.3,19.3,0,0,1-1-6.56,20.07,20.07,0,0,1,1-6.51,13.89,13.89,0,0,1,2.72-4.84,11.84,11.84,0,0,1,4.18-3,13.57,13.57,0,0,1,5.37-1,16,16,0,0,1,3,.26,14.12,14.12,0,0,1,2.31.63,10.59,10.59,0,0,1,1.75.83c.51.3.95.58,1.33.83s.74.47,1.06.64a2,2,0,0,0,.94.26,1.69,1.69,0,0,0,1-.28,2.47,2.47,0,0,0,.62-.63l2.72-3.78a20.22,20.22,0,0,0-6.3-4.11,21.66,21.66,0,0,0-8.48-1.57,22.56,22.56,0,0,0-8.76,1.65,19.92,19.92,0,0,0-6.81,4.61A20.76,20.76,0,0,0,150.7,424a25.16,25.16,0,0,0-1.57,9,26.42,26.42,0,0,0,1.47,9,20.13,20.13,0,0,0,4.21,7.07,19.29,19.29,0,0,0,6.63,4.63,22,22,0,0,0,8.75,1.66,22.66,22.66,0,0,0,9.32-1.75,17.53,17.53,0,0,0,6.54-5.05l-3.2-3.47A1.59,1.59,0,0,0,181.67,444.54Z"/><path class="cls-2" d="M214.65,427.65a13.81,13.81,0,0,0-4.83-3.17,17.06,17.06,0,0,0-6.27-1.12,17.26,17.26,0,0,0-6.32,1.12,13.8,13.8,0,0,0-4.85,3.17,14.13,14.13,0,0,0-3.11,5,20.53,20.53,0,0,0,0,13.26,14.44,14.44,0,0,0,3.11,5.05,13.47,13.47,0,0,0,4.85,3.2,17.05,17.05,0,0,0,6.32,1.12,16.86,16.86,0,0,0,6.27-1.12,13.47,13.47,0,0,0,4.83-3.2,14.27,14.27,0,0,0,3.1-5.05,20.71,20.71,0,0,0,0-13.26A14,14,0,0,0,214.65,427.65ZM209.27,447a6.56,6.56,0,0,1-5.72,2.6,6.69,6.69,0,0,1-5.82-2.62q-1.89-2.61-1.89-7.59t1.89-7.63a6.66,6.66,0,0,1,5.82-2.65,6.53,6.53,0,0,1,5.72,2.63q1.86,2.63,1.86,7.65T209.27,447Z"/><path class="cls-2" d="M265.31,426.44a8.82,8.82,0,0,0-3.36-2.29,12.25,12.25,0,0,0-4.56-.79,13.41,13.41,0,0,0-2.95.33,11.6,11.6,0,0,0-2.76,1,10,10,0,0,0-2.39,1.8,9.5,9.5,0,0,0-1.81,2.64,9.61,9.61,0,0,0-2.83-4.21,7.21,7.21,0,0,0-4.81-1.59,9.8,9.8,0,0,0-2.56.32,10.33,10.33,0,0,0-2.17.86,11.1,11.1,0,0,0-1.91,1.3,17.69,17.69,0,0,0-1.7,1.66l-.49-2.3a1.82,1.82,0,0,0-1.9-1.35h-4.56v31H232v-22.7a10.39,10.39,0,0,1,2.61-2.19,6.08,6.08,0,0,1,3-.8,4.67,4.67,0,0,1,3.67,1.42,6.74,6.74,0,0,1,1.25,4.53v19.74h7.5V435.11a7.23,7.23,0,0,1,.42-2.56,4.94,4.94,0,0,1,2.89-3,5.5,5.5,0,0,1,2.13-.4,4.74,4.74,0,0,1,3.8,1.5,6.6,6.6,0,0,1,1.3,4.45v19.74h7.47V435.11a16.13,16.13,0,0,0-.71-5A10.36,10.36,0,0,0,265.31,426.44Z"/><path class="cls-2" d="M315.91,426.44a8.71,8.71,0,0,0-3.35-2.29,12.25,12.25,0,0,0-4.56-.79,13.41,13.41,0,0,0-2.95.33,11.44,11.44,0,0,0-2.76,1,10,10,0,0,0-2.39,1.8,9.5,9.5,0,0,0-1.81,2.64,9.61,9.61,0,0,0-2.83-4.21,7.22,7.22,0,0,0-4.82-1.59,9.78,9.78,0,0,0-2.55.32,10.33,10.33,0,0,0-2.17.86,11.1,11.1,0,0,0-1.91,1.3,19,19,0,0,0-1.71,1.66l-.48-2.3a1.82,1.82,0,0,0-1.9-1.35h-4.56v31h7.46v-22.7a10.39,10.39,0,0,1,2.61-2.19,6.08,6.08,0,0,1,3-.8,4.67,4.67,0,0,1,3.67,1.42,6.79,6.79,0,0,1,1.25,4.53v19.74h7.5V435.11a7.23,7.23,0,0,1,.42-2.56,4.94,4.94,0,0,1,2.89-3,5.5,5.5,0,0,1,2.13-.4,4.74,4.74,0,0,1,3.8,1.5,6.6,6.6,0,0,1,1.3,4.45v19.74h7.46V435.11a15.84,15.84,0,0,0-.71-5A10.07,10.07,0,0,0,315.91,426.44Z"/><path class="cls-2" d="M345,446.26a12.79,12.79,0,0,1-3.2,2.38,8,8,0,0,1-3.63.86,4.87,4.87,0,0,1-3.94-1.56,6.59,6.59,0,0,1-1.31-4.39v-19.7h-7.47v19.7a15.85,15.85,0,0,0,.68,4.75,10.93,10.93,0,0,0,2,3.74,9.17,9.17,0,0,0,3.28,2.43,11.07,11.07,0,0,0,4.49.86,11.62,11.62,0,0,0,5.4-1.19,16.43,16.43,0,0,0,4.2-3.13l.52,2.48a1.76,1.76,0,0,0,1.87,1.36h4.56v-31H345Z"/><path class="cls-2" d="M384.18,426.64a8.93,8.93,0,0,0-3.27-2.42,11.2,11.2,0,0,0-4.51-.86,12.63,12.63,0,0,0-2.9.32,12,12,0,0,0-2.49.88,12.58,12.58,0,0,0-2.21,1.35,21.68,21.68,0,0,0-2,1.74l-.52-2.45a1.82,1.82,0,0,0-1.9-1.35h-4.56v31h7.46V432.43a12.84,12.84,0,0,1,3.2-2.39,7.85,7.85,0,0,1,3.63-.88,4.87,4.87,0,0,1,4,1.56,6.7,6.7,0,0,1,1.29,4.39v19.74h7.47V435.11a15.85,15.85,0,0,0-.68-4.75A10.57,10.57,0,0,0,384.18,426.64Z"/><rect class="cls-2" x="394.17" y="423.85" width="7.49" height="31"/><path class="cls-2" d="M401.25,411.43a5,5,0,0,0-1.52-1,4.73,4.73,0,0,0-1.87-.37,4.5,4.5,0,0,0-1.83.37,4.8,4.8,0,0,0-1.5,1,4.82,4.82,0,0,0-1.39,3.38,4.38,4.38,0,0,0,.38,1.81,4.84,4.84,0,0,0,2.51,2.5,4.5,4.5,0,0,0,1.83.37,4.73,4.73,0,0,0,1.87-.37,5,5,0,0,0,1.52-1,4.91,4.91,0,0,0,1.05-1.48,4.23,4.23,0,0,0,.39-1.81,4.54,4.54,0,0,0-.39-1.87A4.81,4.81,0,0,0,401.25,411.43Z"/><path class="cls-2" d="M430.25,446.81a1.94,1.94,0,0,0-1.26.44c-.37.29-.81.61-1.31,1a9,9,0,0,1-1.86,1,8,8,0,0,1-2.89.44,7.36,7.36,0,0,1-3.2-.68,6.54,6.54,0,0,1-2.42-2,9.36,9.36,0,0,1-1.52-3.24,16.89,16.89,0,0,1-.53-4.42,17.36,17.36,0,0,1,.48-4.27,9.09,9.09,0,0,1,1.47-3.22,6.58,6.58,0,0,1,2.46-2,8,8,0,0,1,3.44-.71,8.36,8.36,0,0,1,2.59.35,9.44,9.44,0,0,1,1.8.79l1.3.78a2,2,0,0,0,1.11.35,1.49,1.49,0,0,0,.92-.24,3.48,3.48,0,0,0,.65-.67l2-2.72a15,15,0,0,0-4.7-3.2,15.46,15.46,0,0,0-6.09-1.12,16.29,16.29,0,0,0-6.46,1.21,13.26,13.26,0,0,0-4.72,3.34,14.25,14.25,0,0,0-2.88,5,19.62,19.62,0,0,0-1,6.33,19.38,19.38,0,0,0,1.11,6.79,15,15,0,0,0,3,5,12.81,12.81,0,0,0,4.45,3.13,13.8,13.8,0,0,0,5.4,1.07,22.73,22.73,0,0,0,3.28-.24,15.46,15.46,0,0,0,3.21-.83,14.9,14.9,0,0,0,3-1.58,13.28,13.28,0,0,0,2.69-2.43l-2.15-2.72A1.5,1.5,0,0,0,430.25,446.81Z"/><path class="cls-2" d="M459,426.64a10.37,10.37,0,0,0-3.63-2.48,12.64,12.64,0,0,0-4.86-.89,18.35,18.35,0,0,0-12.87,4.9l1.33,2.38a3.27,3.27,0,0,0,.87.95,2.13,2.13,0,0,0,1.33.41,3.27,3.27,0,0,0,1.65-.42l1.65-.95a12.11,12.11,0,0,1,2.1-1,8.82,8.82,0,0,1,3-.43,4.87,4.87,0,0,1,3.84,1.5,6.77,6.77,0,0,1,1.33,4.61v1.81a48.56,48.56,0,0,0-6.29.53,30.26,30.26,0,0,0-4.81,1.13,14.93,14.93,0,0,0-3.49,1.63,10.84,10.84,0,0,0-2.32,2,6.77,6.77,0,0,0-1.28,2.22,7.27,7.27,0,0,0-.39,2.34,9.41,9.41,0,0,0,.66,3.66,7.15,7.15,0,0,0,1.88,2.62,7.8,7.8,0,0,0,2.87,1.59,11.9,11.9,0,0,0,3.62.53,15,15,0,0,0,3-.29,12.56,12.56,0,0,0,2.58-.83,13.62,13.62,0,0,0,2.33-1.34,29.3,29.3,0,0,0,2.29-1.86l.67,2.23a2.16,2.16,0,0,0,.91,1.29,3.41,3.41,0,0,0,1.63.32h3.38V435.27a14.67,14.67,0,0,0-.77-4.84A10.52,10.52,0,0,0,459,426.64Zm-4.26,20.2a11.68,11.68,0,0,1-3.28,2.52,8.77,8.77,0,0,1-4,.83,5.09,5.09,0,0,1-3-.84,3.69,3.69,0,0,1-.59-4.66,4.72,4.72,0,0,1,1.91-1.48,14.43,14.43,0,0,1,3.53-1,41.27,41.27,0,0,1,5.44-.56Z"/><path class="cls-2" d="M478.07,414.36h-3.86a1.71,1.71,0,0,0-1.09.33,1.64,1.64,0,0,0-.57.94L471,424.06l-5,.84v3a1.53,1.53,0,0,0,.42,1.18,1.48,1.48,0,0,0,1,.4h3.17v17.31a8.79,8.79,0,0,0,2.16,6.3,8.15,8.15,0,0,0,6.21,2.28,13.76,13.76,0,0,0,4.38-.7,11.2,11.2,0,0,0,3.75-2.05L484.87,449a2.88,2.88,0,0,0-.45-.5.85.85,0,0,0-.54-.16,1,1,0,0,0-.55.16,6.86,6.86,0,0,1-.62.35,6.33,6.33,0,0,1-.81.35,3.57,3.57,0,0,1-1.17.17,2.48,2.48,0,0,1-2-.82,3.35,3.35,0,0,1-.71-2.27V429.44h14.39v25.41h7.46V424.12H478.07Z"/><path class="cls-2" d="M499.78,411.32a4.89,4.89,0,0,0-1.54-1,4.79,4.79,0,0,0-1.89-.37,4.41,4.41,0,0,0-1.81.37,5,5,0,0,0-1.48,1,5.06,5.06,0,0,0-1,1.51,4.65,4.65,0,0,0-.38,1.86,4.54,4.54,0,0,0,.38,1.83,4.84,4.84,0,0,0,1,1.49,5,5,0,0,0,1.48,1,4.41,4.41,0,0,0,1.81.37,4.79,4.79,0,0,0,1.89-.37,4.87,4.87,0,0,0,1.54-1,5,5,0,0,0,1.05-1.49,4.39,4.39,0,0,0,.39-1.83,4.49,4.49,0,0,0-.39-1.86A5.18,5.18,0,0,0,499.78,411.32Z"/><path class="cls-2" d="M532.35,427.65a13.72,13.72,0,0,0-4.83-3.17,17,17,0,0,0-6.27-1.12,17.16,17.16,0,0,0-6.31,1.12,13.71,13.71,0,0,0-4.85,3.17,14.15,14.15,0,0,0-3.12,5,20.53,20.53,0,0,0,0,13.26,14.46,14.46,0,0,0,3.12,5.05,13.38,13.38,0,0,0,4.85,3.2,17,17,0,0,0,6.31,1.12,16.78,16.78,0,0,0,6.27-1.12,13.39,13.39,0,0,0,4.83-3.2,14.13,14.13,0,0,0,3.1-5.05,20.71,20.71,0,0,0,0-13.26A13.83,13.83,0,0,0,532.35,427.65ZM527,447a6.58,6.58,0,0,1-5.73,2.6,6.66,6.66,0,0,1-5.81-2.62q-1.89-2.61-1.89-7.59t1.89-7.63a6.63,6.63,0,0,1,5.81-2.65A6.55,6.55,0,0,1,527,431.7c1.24,1.75,1.85,4.3,1.85,7.65S528.22,445.23,527,447Z"/><path class="cls-2" d="M566.59,426.64a9,9,0,0,0-3.28-2.42,11.18,11.18,0,0,0-4.5-.86,12.5,12.5,0,0,0-2.9.32,11.93,11.93,0,0,0-2.5.88,12.49,12.49,0,0,0-2.2,1.35,20.53,20.53,0,0,0-2,1.74l-.51-2.45a1.84,1.84,0,0,0-1.91-1.35h-4.56v31h7.46V432.43a12.88,12.88,0,0,1,3.21-2.39,7.78,7.78,0,0,1,3.62-.88,4.87,4.87,0,0,1,4,1.56,6.7,6.7,0,0,1,1.3,4.39v19.74h7.46V435.11a15.85,15.85,0,0,0-.68-4.75A10.71,10.71,0,0,0,566.59,426.64Z"/><path class="cls-2" d="M594.9,439.54a9.93,9.93,0,0,0-2.43-1.57c-.91-.41-1.83-.78-2.77-1.1s-1.86-.62-2.76-.89a18.39,18.39,0,0,1-2.44-.92,5.88,5.88,0,0,1-1.72-1.2,2.34,2.34,0,0,1-.65-1.68,2.9,2.9,0,0,1,1.26-2.44,5.6,5.6,0,0,1,3.46-.94,9,9,0,0,1,2.46.3,13.75,13.75,0,0,1,1.86.68l1.43.68a2.67,2.67,0,0,0,1.17.3,1.63,1.63,0,0,0,.84-.19,2.12,2.12,0,0,0,.64-.68l1.69-2.69a13.1,13.1,0,0,0-4.38-2.78,16.8,16.8,0,0,0-10.9-.29,11,11,0,0,0-3.65,2.06,8.42,8.42,0,0,0-2.22,3,8.85,8.85,0,0,0-.76,3.63,8.54,8.54,0,0,0,.65,3.5,7.41,7.41,0,0,0,1.72,2.45,9.42,9.42,0,0,0,2.45,1.65,26.16,26.16,0,0,0,2.81,1.13c1,.32,1.89.62,2.81.89a16.8,16.8,0,0,1,2.45.92,5.9,5.9,0,0,1,1.72,1.21,2.54,2.54,0,0,1,.65,1.79,3.58,3.58,0,0,1-.29,1.4,3.11,3.11,0,0,1-.9,1.19,4.72,4.72,0,0,1-1.58.83,7,7,0,0,1-2.28.32,8.48,8.48,0,0,1-2.79-.39,12.48,12.48,0,0,1-1.92-.85c-.54-.3-1-.58-1.43-.84a2.48,2.48,0,0,0-1.32-.4,2.15,2.15,0,0,0-1.15.28,2.42,2.42,0,0,0-.78.78l-1.72,2.84a11.77,11.77,0,0,0,2.1,1.51,15.41,15.41,0,0,0,2.59,1.21,18.88,18.88,0,0,0,2.93.8,18.13,18.13,0,0,0,8.46-.48,11.22,11.22,0,0,0,3.89-2.15,8.87,8.87,0,0,0,2.37-3.26,10.51,10.51,0,0,0,.8-4.12,7.32,7.32,0,0,0-.65-3.21A7.46,7.46,0,0,0,594.9,439.54Z"/><path class="cls-2" d="M217.58,347.69a26.77,26.77,0,0,0,9.49,9.49q5.64,3.24,17.18,3.25h57.2L219.2,249.51a456.63,456.63,0,0,0-48,37.65Z"/><path class="cls-2" d="M410.18,351.05q30.87,13.23,69.57,13.22,43.26,0,74.13-13.94a139.7,139.7,0,0,0,52-40.13l-25.47-27.63a12.16,12.16,0,0,0-9.14-4.09,12.7,12.7,0,0,0-5.76,1.32,23,23,0,0,0-5,3.49,106.78,106.78,0,0,1-16,12.14,87.54,87.54,0,0,1-17.06,8A101,101,0,0,1,507.74,308a180.29,180.29,0,0,1-23.91,1.44,103.19,103.19,0,0,1-41.33-8.29,95.7,95.7,0,0,1-33.4-23.91q-14.18-15.61-22.47-38.45t-8.29-52.14c0-1.41.05-2.79.08-4.18a443.8,443.8,0,0,0-65.68,18.7,204.4,204.4,0,0,0,11.17,56.85q11.65,32.69,33.53,56.23A153,153,0,0,0,410.18,351.05Z"/><path class="cls-2" d="M385.23,123.69q8.1-22.2,22.55-37.71a98,98,0,0,1,34.53-23.84,113.82,113.82,0,0,1,44.05-8.34q20.44,0,33.72,4.23a117.15,117.15,0,0,1,22,9.16,137.37,137.37,0,0,1,14.33,9.16q5.64,4.23,11,4.23,5.18,0,8.11-2.11a19.09,19.09,0,0,0,4.81-4.94l21.15-29.36A154.74,154.74,0,0,0,553,12.1Q524.66,0,486.83,0,448.07,0,416,12.8a158.35,158.35,0,0,0-90.79,90.68,181,181,0,0,0-12.07,54,563.36,563.36,0,0,1,65.51-6.67A131.19,131.19,0,0,1,385.23,123.69Z"/><path class="cls-2" d="M64.64,271.55V194.89H85.07q11,0,17.06,2.76a29.22,29.22,0,0,1,10.81,9l13.55,17.68a452.07,452.07,0,0,1,55.13-29.65L174.46,185a75.5,75.5,0,0,0-12.38-13.45,47.72,47.72,0,0,0-14.3-8.18A48.32,48.32,0,0,0,158.6,156a106.2,106.2,0,0,0,10.57-11.3L286.2.24H230.45q-10.09,0-16.7,3t-12.62,10.7L105.25,135.29a25.56,25.56,0,0,1-10.33,8.05q-6,2.52-15.14,2.52H64.64V0H0V347.72H0C8.73,333.71,29.36,303.89,64.64,271.55Z"/><path class="cls-3" d="M571.23,182.65C183.61,92.62,35.86,335.19,19.7,364.27h81.78a517,517,0,0,1,69.74-77.11,456.63,456.63,0,0,1,48-37.65,432.55,432.55,0,0,1,93.54-48.3,443.8,443.8,0,0,1,65.68-18.7C462.79,165.3,535.57,175.26,571.23,182.65Z"/></g></g></svg>