<?xml version="1.0" encoding="utf-8"?>
<!-- Generator: Adobe Illustrator 23.0.3, SVG Export Plug-In . SVG Version: 6.00 Build 0)  -->
<svg version="1.1" id="Layer_1" xmlns="http://www.w3.org/2000/svg" xmlns:xlink="http://www.w3.org/1999/xlink" x="0px" y="0px"
	 viewBox="0 0 1080 509.7" style="enable-background:new 0 0 1080 509.7;" xml:space="preserve">
<style type="text/css">
	.st0{fill:#041E42;}
</style>
<path class="st0" d="M490,155.9h37v54.2l46-54.2h43.9l-50.5,57.3l52.3,76.3h-44.3l-33.8-49.6L527,254.7v34.7h-37V155.9z"/>
<path class="st0" d="M630.5,155.9h107.4v31.3h-70.8v20.4h64.1v29.2h-64.1V258h71.8v31.5H630.5V155.9z"/>
<path class="st0" d="M759.1,155.9h107.5v31.3h-70.8v20.4h64.1v29.2h-64.1V258h71.8v31.5H759.1V155.9z"/>
<path class="st0" d="M884.3,155.9h34.5l55,70.6v-70.6h36.6v133.6h-32.3l-57.3-73.3v73.3h-36.6V155.9z"/>
<path class="st0" d="M580.9,358.3v-0.2c0-17.6,13.2-32,31.8-32c11.5,0,18.4,4,24.3,9.6l-7,8c-5-4.6-10.3-7.6-17.4-7.6
	c-11.7,0-20.3,9.6-20.3,21.7v0.2c0,12.1,8.6,21.9,20.4,21.9c7.5,0,12.5-3,17.8-8l7,7.1c-6.3,6.8-13.6,11-25.1,11
	C594.3,390.1,580.9,376,580.9,358.3z"/>
<path class="st0" d="M644.5,358.3v-0.2c0-17.3,13.4-32,32.4-32s32.3,14.4,32.3,31.8v0.2c0,17.3-13.4,32-32.4,32
	S644.5,375.7,644.5,358.3z M697.8,358.3v-0.2c0-12-8.7-21.9-21-21.9s-20.9,9.7-20.9,21.7v0.2c0,12,8.7,21.9,21,21.9
	S697.8,370.3,697.8,358.3z"/>
<path class="st0" d="M722.3,327.1h11.6l18.8,29.3l18.8-29.3h11.6V389h-10.9v-44.4l-19.5,29.2h-0.3l-19.4-29V389h-10.7V327.1z"/>
<path class="st0" d="M799,327.1h11.6l18.8,29.3l18.8-29.3h11.6V389H849v-44.4l-19.5,29.2h-0.3l-19.4-29V389H799V327.1z"/>
<path class="st0" d="M871.6,380l6.5-7.8c6,5.2,11.8,8,19.5,8c6.7,0,11-3.2,11-7.8v-0.2c0-4.3-2.5-6.9-14-9.5
	c-13.2-3.1-20.6-7.2-20.6-18.5v-0.2c0-10.6,8.8-18,21.1-18c8.2-0.2,16.1,2.6,22.4,7.8l-5.8,8.2c-5.7-4.1-11.1-6.4-16.8-6.4
	c-6.4,0-10.1,3.2-10.1,7.3v0.2c0,4.8,2.8,6.9,14.8,9.7c13,3.4,19.8,7.8,19.8,18.1v0.2c0,11.7-9.1,18.5-22.1,18.5
	C887.9,390,878.6,386.5,871.6,380z"/>
<path class="st0" d="M252.6,71.9c-101.1,0-183,81.9-183,183s81.9,183,183,183s183-81.9,183-183S353.6,71.9,252.6,71.9z M154.1,156.4
	h72.7l-72.7,72.7V156.4z M154.1,263.9l107.5-107.5h56.1L154.1,320V263.9z M155.5,353.3l81.1-81l81,81H155.5z M351,351.9l-97-97
	l97-97V351.9z"/>
</svg>
