<svg id="Layer_1" data-name="Layer 1" xmlns="http://www.w3.org/2000/svg" viewBox="0 0 1080 509.73"><defs><style>.cls-1{fill:#fff;}</style></defs><path class="cls-1" d="M490,155.85h37v54.2l46-54.2h43.89L566.34,213.1l52.29,76.34H574.36l-33.78-49.62L527,254.7v34.74H490Z"/><path class="cls-1" d="M630.45,155.85H737.89v31.3h-70.8v20.42h64.12v29.19H667.09V258h71.76v31.49H630.45Z"/><path class="cls-1" d="M759.06,155.85H866.51v31.3H795.7v20.42h64.13v29.19H795.7V258h71.76v31.49H759.06Z"/><path class="cls-1" d="M884.27,155.85h34.55l55,70.61V155.85h36.64V289.44H978.17l-57.26-73.29v73.29H884.27Z"/><path class="cls-1" d="M580.91,358.25v-.17c0-17.59,13.17-32,31.82-32,11.49,0,18.38,4,24.31,9.63l-7,8.05c-5-4.6-10.25-7.6-17.41-7.6-11.67,0-20.33,9.63-20.33,21.74v.18c0,12.11,8.57,21.92,20.42,21.92,7.51,0,12.46-3,17.76-8l7,7.07c-6.28,6.81-13.61,11-25.11,11C594.34,390.07,580.91,376,580.91,358.25Z"/><path class="cls-1" d="M644.46,358.25v-.17c0-17.33,13.43-32,32.44-32s32.26,14.41,32.26,31.82v.18c0,17.32-13.44,32-32.44,32S644.46,375.67,644.46,358.25Zm53.3,0v-.17c0-12-8.66-21.92-21-21.92s-20.86,9.72-20.86,21.74v.18c0,12,8.66,21.92,21,21.92S697.76,370.27,697.76,358.25Z"/><path class="cls-1" d="M722.33,327.14H733.9l18.83,29.26,18.83-29.26h11.58V389H772.27V344.64l-19.54,29.17h-.35l-19.36-29V389H722.33Z"/><path class="cls-1" d="M799,327.14h11.59l18.82,29.26,18.83-29.26h11.58V389H849V344.64l-19.54,29.17h-.35l-19.36-29V389H799Z"/><path class="cls-1" d="M871.61,380l6.54-7.78c6,5.22,11.85,8,19.54,8,6.71,0,11-3.18,11-7.78v-.17c0-4.33-2.48-6.9-14-9.46-13.17-3.09-20.6-7.16-20.6-18.47v-.18c0-10.61,8.84-17.95,21.13-17.95A34.32,34.32,0,0,1,917.66,334l-5.83,8.22c-5.66-4.15-11.14-6.36-16.8-6.36-6.36,0-10.07,3.18-10.07,7.34v.17c0,4.78,2.83,6.9,14.76,9.73,13,3.35,19.8,7.78,19.8,18.12v.17c0,11.67-9.1,18.48-22.1,18.48A37.51,37.51,0,0,1,871.61,380Z"/><path class="cls-1" d="M252.56,71.88c-101.06,0-183,81.93-183,183s81.92,183,183,183,183-81.93,183-183S353.62,71.88,252.56,71.88Zm-98.44,84.53h72.66l-72.66,72.66Zm0,107.48L261.58,156.41h56.08L154.12,320Zm1.43,89.43,81.06-81.05,81.05,81.05ZM351,351.87l-97-97,97-97Z"/></svg>