<?xml version="1.0" encoding="utf-8"?>
<!-- Generator: Adobe Illustrator 23.0.3, SVG Export Plug-In . SVG Version: 6.00 Build 0)  -->
<svg version="1.1" id="Layer_1" xmlns="http://www.w3.org/2000/svg" xmlns:xlink="http://www.w3.org/1999/xlink" x="0px" y="0px"
	 viewBox="0 0 940.9 366" style="enable-background:new 0 0 940.9 366;" xml:space="preserve">
<style type="text/css">
	.st0{fill:#FFFFFF;}
</style>
<path class="st0" d="M420.4,84h37v54.2l46-54.2h43.9l-50.5,57.3l52.3,76.3h-44.3L471,168l-13.6,14.9v34.7h-37V84z"/>
<path class="st0" d="M560.9,84h107.4v31.3h-70.8v20.4h64.1v29.2h-64.1v21.2h71.8v31.5H560.9V84z"/>
<path class="st0" d="M689.5,84H797v31.3h-70.8v20.4h64.1v29.2h-64.1v21.2h71.8v31.5H689.5V84z"/>
<path class="st0" d="M814.7,84h34.5l55,70.6V84h36.6v133.6h-32.3l-57.3-73.3v73.3h-36.6V84z"/>
<path class="st0" d="M511.3,286.4v-0.2c0-17.6,13.2-32,31.8-32c11.5,0,18.4,4,24.3,9.6l-7,8c-5-4.6-10.3-7.6-17.4-7.6
	c-11.7,0-20.3,9.6-20.3,21.7v0.2c0,12.1,8.6,21.9,20.4,21.9c7.5,0,12.5-3,17.8-8l7,7.1c-6.3,6.8-13.6,11-25.1,11
	C524.8,318.2,511.3,304.1,511.3,286.4z"/>
<path class="st0" d="M574.9,286.4v-0.2c0-17.3,13.4-32,32.4-32s32.3,14.4,32.3,31.8v0.2c0,17.3-13.4,32-32.4,32
	S574.9,303.8,574.9,286.4z M628.2,286.4v-0.2c0-12-8.7-21.9-21-21.9s-20.9,9.7-20.9,21.7v0.2c0,12,8.7,21.9,21,21.9
	S628.2,298.4,628.2,286.4z"/>
<path class="st0" d="M652.8,255.3h11.6l18.8,29.3l18.8-29.3h11.6v61.9h-10.9v-44.4L683.2,302h-0.3l-19.4-29v44.2h-10.7V255.3z"/>
<path class="st0" d="M729.4,255.3H741l18.8,29.3l18.8-29.3h11.6v61.9h-10.8v-44.4L759.9,302h-0.3l-19.4-29v44.2h-10.8V255.3z"/>
<path class="st0" d="M802,308.1l6.5-7.8c6,5.2,11.8,8,19.5,8c6.7,0,11-3.2,11-7.8v-0.2c0-4.3-2.5-6.9-14-9.5
	c-13.2-3.1-20.6-7.2-20.6-18.5v-0.2c0-10.6,8.8-18,21.1-18c8.2-0.2,16.1,2.6,22.4,7.8l-5.8,8.2c-5.7-4.1-11.1-6.4-16.8-6.4
	c-6.4,0-10.1,3.2-10.1,7.3v0.2c0,4.8,2.8,6.9,14.8,9.7c13,3.4,19.8,7.8,19.8,18.1v0.2c0,11.7-9.1,18.5-22.1,18.5
	C818.3,318.1,809.1,314.6,802,308.1z"/>
<path class="st0" d="M183,0C81.9,0,0,82,0,183s81.9,183,183,183s183-81.9,183-183S284.1,0,183,0z M84.6,84.6h72.7l-72.7,72.7V84.6z
	 M84.6,192L192,84.6h56.1L84.6,248.1V192z M86,281.5l81.1-81l81,81H86z M281.4,280l-97-97l97-97V280z"/>
</svg>
