<svg width="411" height="405" viewBox="0 0 411 405" fill="none" xmlns="http://www.w3.org/2000/svg">
<g id="Reach us today BG" clip-path="url(#clip0)">
<circle id="Half Circle Svg" cx="206" cy="5" r="300" fill="#FBFBFB"/>
<g id="Header">
<rect id="Background" width="411" height="60" fill="#FBFBFB"/>
<g id="Keen Logo Light">
<path id="KC" d="M27.9548 31.1029C26.2822 31.8582 24.664 32.7285 23.1118 33.7076L21.9214 32.1544C21.674 31.8175 21.348 31.5461 20.9718 31.3638C20.6204 31.2022 20.1209 31.1214 19.4731 31.1214H17.6784V37.8557C14.5792 40.6958 12.7669 43.3154 12 44.5461V14H17.6784V26.8134H19.0084C19.5437 26.8134 19.987 26.7396 20.3384 26.592C20.6972 26.4391 21.0099 26.1953 21.2459 25.8848L29.6687 15.2246C30.02 14.7742 30.3896 14.4609 30.7773 14.2846C31.165 14.1083 31.654 14.0205 32.2443 14.0211H37.1418L26.8637 26.7079C26.578 27.0623 26.2668 27.3952 25.9325 27.7041C25.6469 27.964 25.3274 28.1841 24.9829 28.3586C25.4399 28.523 25.8647 28.7659 26.2382 29.0763C26.6469 29.4227 27.0121 29.8174 27.3258 30.2517L27.9548 31.1029ZM27.0412 39.2261L31.1137 44.5435C31.3163 44.8877 31.6032 45.1746 31.9474 45.3772C32.2777 45.5669 32.7808 45.6621 33.4566 45.6627H38.4815L31.256 35.9187C29.7789 36.926 28.3708 38.0309 27.0412 39.2261ZM45.8404 24.8658C46.3148 23.5657 46.9751 22.4614 47.8213 21.5531C48.6694 20.6442 49.7042 19.9297 50.8547 19.4588C52.0832 18.9605 53.3986 18.7114 54.7243 18.7262C55.9214 18.7262 56.9088 18.85 57.6866 19.0978C58.3564 19.2996 59.004 19.5692 59.6192 19.9024C60.055 20.1444 60.4754 20.4131 60.878 20.7071C61.2083 20.9548 61.5304 21.0787 61.8443 21.0787C62.1477 21.0787 62.3852 21.0169 62.5568 20.8933C62.7228 20.7755 62.866 20.6285 62.9793 20.4594L64.8373 17.8802C63.6087 16.6805 62.1639 15.7246 60.5793 15.0629C58.919 14.3543 56.9814 14 54.7665 14C52.4966 14 50.4225 14.3748 48.5443 15.1244C46.7328 15.8314 45.0856 16.9027 43.7048 18.272C42.3399 19.6459 41.2724 21.2861 40.5687 23.0904C39.9742 24.608 39.6166 26.2079 39.5084 27.8341C41.4136 27.5268 43.3352 27.3311 45.2632 27.2482C45.3707 26.4358 45.5644 25.6371 45.8413 24.8658H45.8404ZM62.9899 38.8229C62.8892 38.7094 62.7655 38.6187 62.6271 38.5568C62.4887 38.4948 62.3386 38.4631 62.1869 38.4636C62.0115 38.4619 61.8381 38.5017 61.6809 38.5796C61.5216 38.6618 61.3739 38.7649 61.2417 38.8862C60.8079 39.2852 60.3373 39.6423 59.8362 39.9526C59.3633 40.2401 58.8609 40.4757 58.3375 40.6554C57.7755 40.8468 57.1957 40.9813 56.6069 41.0569C55.91 41.1455 55.2081 41.1878 54.5056 41.1834C53.2582 41.193 52.0221 40.9451 50.8749 40.4551C49.7564 39.9756 48.7553 39.2589 47.9408 38.3547C47.1104 37.4405 46.4524 36.3146 45.9669 34.977C45.4814 33.6393 45.2386 32.1126 45.2386 30.3966C45.2386 30.2728 45.243 30.1515 45.2457 30.0294C43.2831 30.428 41.3541 30.9772 39.4759 31.6722C39.5642 33.375 39.8946 35.0566 40.4571 36.6663C41.1394 38.5807 42.1212 40.2273 43.4026 41.6059C44.7011 42.998 46.2802 44.0987 48.0357 44.8351C49.8436 45.61 51.8807 45.9971 54.1472 45.9965C56.6807 45.9965 58.8514 45.5883 60.6593 44.7719C62.4405 43.9766 64.0065 42.7681 65.2273 41.2466L62.9899 38.8229Z" fill="#252122"/>
<path id="Ark" d="M62.1807 30.0452C28.1295 22.1364 15.1501 43.4454 13.7305 46H20.9146C22.7239 43.5419 24.7765 41.2725 27.041 39.2261C28.3713 38.0309 29.78 36.9259 31.2577 35.9187C33.8138 34.1751 36.5733 32.7502 39.4749 31.6757C41.3531 30.9807 43.2821 30.4315 45.2447 30.0329C52.6546 28.5211 59.0481 29.3961 62.1807 30.0452Z" fill="#F1B428"/>
</g>
</g>
</g>
<defs>
<clipPath id="clip0">
<rect width="411" height="405" fill="white"/>
</clipPath>
</defs>
</svg>
